<?xml version="1.0" encoding="UTF-8"?>
<svg id="LOGO" xmlns="http://www.w3.org/2000/svg" viewBox="0 0 387.7558 331.49837">
  <defs>
    <style>
      .cls-1 {
        fill: #0071ce;
      }

      .cls-1, .cls-2, .cls-3, .cls-4, .cls-5 {
        stroke-width: 0px;
      }

      .cls-2 {
        fill: #96d6ea;
      }

      .cls-3 {
        fill: #002d74;
      }

      .cls-4 {
        fill: #c10230;
      }

      .cls-5 {
        fill: #fff;
      }
    </style>
  </defs>
  <g>
    <path class="cls-3" d="M246.96162,109.82736l-2.36104.23492c-4.28102.38831-5.89898-.02147-6.9081-.32362-.5705-.24677-1.25602-.43853-2.30592-.36907-5.04804.33329-7.60562,4.34334-8.44934,5.42917-2.8452,1.86957-5.81509,3.45166-8.92396,4.82279-5.19664,2.28668-7.32276,2.58379-10.52754,2.81642.06954-1.88403.67837-8.75136,6.86497-17.31823.76463-1.04741,1.57002-2.06622,2.42333-3.01546l.04318-.04784.02394-.0456c1.30877-2.32984,2.29633-4.84432,2.87637-7.44974.81499-3.55716.87491-6.7883.81499-9.06536-.05993-2.2676-.27327-4.52314-.52974-6.75715-.21815-2.08536-.53694-4.17555-.59205-6.22258-.01199-.51289-.00957-1.021.01677-1.52681l.06715-1.33994-.88692.92756c-.50096.50337-1.64191,1.67791-2.6966,3.80643-.40986.88939-.75984,1.8169-.94919,2.78527-.03596.19426-.06234.38841-.08629.5849-.00478-.02153-.23492-.94201-.26609-2.12607-.00715-.24927-.00478-.49625.00959-.74068l.07433-1.43816-.69274.79575c-.51297.56322-1.72341,1.92957-2.55038,4.31937-.48421,1.53165-.53213,2.64624-.52017,3.12803.01443.49375.07675.98751.1894,1.46463-.71911-.93967-1.06907-2.10454-1.11461-3.13536l-.05272-1.232-.80779.91804c-.83176.94919-1.65631,1.90805-2.3634,2.96274-.71671,1.04502-1.3735,2.14047-1.89365,3.30534-.52493,1.16019-.93718,2.37783-1.21528,3.62194-.27324,1.19367-.40268,2.42328-.56567,3.57863-1.22966,1.4118-2.39697,2.87159-3.51397,4.37204-1.14337,1.54376-2.23877,3.12091-3.22394,4.79165-.9612,1.66341-1.88403,3.33898-2.73494,5.06957-.34653.71573-.68094,1.44008-.99123,2.17786l4.06433,6.36131c.55984.73824.97105,1.19518,1.66723,1.70714.69618.51195,2.18321,1.57101,2.4428,1.74192.25962.17091.42611.45673.1653.35664-.26084-.10004-2.28642-.93115-2.88438-1.24848-.59795-.31733-1.67134-.8531-2.57235-1.83728-.68851-.75207-2.17721-2.4876-3.79566-4.57326-.0027.009-.00614.01763-.00881.02662-.52493-.66638-1.05469-1.33027-1.57244-2.00154-3.38214-4.4128-6.6516-8.92632-9.85877-13.47099l-.04074-.05985-.05995-.04799-.00957-.00712c-3.12325-2.4042-6.06436-5.00733-8.62672-7.98436-2.57438-2.9604-4.87546-6.17225-7.13342-9.41062l-.03356-.0455-.04791-.0455c-.47459-.43157-4.15397-3.61477-7.63201-9.05585-1.07863-1.66585-2.08536-3.38214-3.00821-5.14387-.91804-1.75944-1.77616-3.56912-2.50005-5.39574l-.65437-1.64906-.10547.61839c.00962-.06229.0144-.12214.024-.18448-.40032,1.55562-.69035,3.14956-.7958,4.7723-.05275.8102-.06954,1.62997.02158,2.45931.01674.151.04074.30449.06232.45793-.50096-.62089-.98278-1.2633-1.41424-1.94169-1.03789-1.63226-1.92477-3.37735-2.62949-5.17741l-.58246-1.48849-.36194,1.55084c-.06949.30444-.12463.61355-.18217.92033.04557-.35461.0743-.70938.13423-1.05937-.32118,1.395-.51533,2.81881-.63279,4.2499-.10787,1.43098-.02158,2.83072.11028,4.27371.13423,1.43826.3739,2.88121.85092,4.27387.35953,1.00186.83896,1.97034,1.45017,2.86675-.81499-.58724-1.45017-1.22966-1.84329-1.73542l-.84132-1.08339-.01201.31634c-.11265.69987-.06468,1.44544-.03115,2.14765.15822,3.40855,1.55325,6.17713,3.37494,7.45946.00959.00962.01679.01913.02639.02881-.01679.89652.06232,1.78804.19894,2.6726.16537,1.10263.44584,2.18852.79819,3.25267.38113,1.05469.84371,2.08536,1.43101,3.04655.43864.69274.94677,1.34711,1.52928,1.92006-.00242.08382-.00242.1653,0,.24932.00237.06463.00478.12947.00957.1941l.05033.71188c.08148.88924.28762,2.46883,1.15774,4.27626.81018,1.70656,2.0734,3.2,3.63143,4.29534,0,.04082.00239.07914.00239.1198.02397.9469.12944,1.90571.40749,2.82126.29963,1.038.75743,2.02306,1.3351,2.92925,1.14095,1.75924,2.71581,3.21185,4.55187,4.22822.56569.87967,1.06189,1.92952,1.50768,2.94589.45785,1.05698.87491,2.13569,1.25365,3.22864.68312,1.94159,1.25841,3.92394,1.78334,5.92064.02636.1653.0839.35711.14385.52729.01916.07196.04074.14626.0599.21807l.03117.11751.07433.08631c3.29101,3.69614,6.86731,7.06627,10.18713,8.23831-2.35862,1.45261-4.3529,3.363-6.26808,5.26622-1.09785,1.09545-2.16691,2.21249-3.28147,3.25267-1.10744,1.00685-2.30592,2.07589-3.60507,2.39952l-1.03072.25644c-.01196-.00967-.02394-.01685-.03596-.02652.00962.00967.01921.01934.02639.02886l-.02875.00712.11507.08153c.57045.61127,1.24882,1.13861,2.05418,1.49811.17018.06947.35238.12463.53455.17497-.30444.16062-.60406.32607-.90127.50826-1.33271.80287-2.51443,1.85038-3.53077,3.00818l-1.13617,1.292,1.41182-.41961c-.06468.03598-.12942.06718-.19176.108.10069-.05283.20377-.09349.30441-.14148l.12944-.03832c2.53122-.75504,5.14634-1.22248,7.78782-1.56274,2.10693-.15349,4.21626-.18947,6.34238-.30698,17.55549-.97316,26.02401-5.02157,33.60325-13.55247.23253-.26133.44587-.53691.67358-.80058,1.08578-1.17932,2.12851-2.39697,3.13045-3.63624,6.71873-5.25176,10.2998-8.15455,16.26828-11.76911,3.90709-.51778,6.98721-1.99909,9.96664-4.54238,5.39322-2.21233,7.42824-3.48031,7.40666-4.2642-.00478-.18448-.04791-.36678-.09344-.52256Z"/>
    <path class="cls-2" d="M155.80432,136.60711l-.99806.06115c-1.80905.095-2.48388-.10347-2.90401-.24688-.2363-.11304-.52191-.20476-.96515-.19233-2.13119.05954-3.27248,1.70729-3.64519,2.15113-.93767.4245-1.65439.71963-1.9302.82611-1.93945.74874-2.86826.92943-3.96634.99437.21589-.87686.62733-2.08172,1.74543-3.51036.33387-.42668,1.3434-1.43707,1.95609-2.32755.61267-.89038,1.33802-1.9315,1.85543-2.91448.71391-1.3416,1.14207-2.57193,1.41071-3.44063.26742-.86516.48369-1.7284.6832-2.58405.19314-.79845.3543-1.60044.59543-2.38142.06102-.19571.12604-.38929.19857-.58158l.19122-.50951-.40453.33834c-.2259.18329-.74396.61132-1.35473,1.40441-.24527.33189-.47595.67938-.65975,1.04517-.03624.07342-.06928.14694-.10191.2214.00117-.00827.04308-.36298.18274-.81473.02922-.0951.06125-.18921.09682-.28208l.20601-.54679-.32498.29139c-.23741.20585-.80225.70579-1.37231,1.60242-.35058.57534-.50712.99926-.56418,1.18312-.05777.18838-.10009.3776-.12391.56135-.114-.37042-.08-.82029.03562-1.2139l.13878-.47036-.37767.336c-.38945.34749-.77776.69883-1.14014,1.08859-.36434.38602-.71557.79221-1.03137,1.22721-.31673.43313-.6043.89012-.85175,1.35949-.23947.45018-.43698.91659-.63586,1.35408-.57679.51695-1.13952,1.05323-1.69104,1.60595-.56551.56873-1.11979,1.15099-1.65015,1.77088-.5217.6174-1.03254,1.24016-1.52702,1.88507-.1523.20044-.64257.60835-1.22628,1.07762l1.46067,2.28616c.21823.2878.37853.46588.6499.66545s.95119.44025,1.06774.47342c.22891.065.28528.1471.06445.13904-.10883-.004-1.0068-.15744-1.2399-.28109-.23307-.12375-.65148-.33257-1.00269-.71619-.29518-.32238-.96788-1.1098-1.66996-2.03123-.00577.00463-.01147.00915-.01726.01378-.09676-.13899-.19054-.28057-.28697-.41982-.03203-.04347-.06422-.08579-.09614-.12957l.00556-.00302c-1.24471-1.80083-2.46646-3.62226-3.66528-5.45631l-.01783-.02803-.02485-.02387-.004-.00359c-1.29491-1.20116-2.52503-2.47959-3.61927-3.90137-1.09834-1.41518-2.09812-2.92587-3.08186-4.44587l-.01453-.02142-.02012-.02215c-.19891-.21131-1.7355-1.77879-3.2652-4.31682-.47368-.77776-.92098-1.57382-1.33698-2.38537-.41399-.81031-.80625-1.63944-1.1467-2.46919l-.30761-.74911-.02153.26326c.00174-.02657.00174-.05231.00348-.07893-.10683.65557-.16938,1.33328-.15903,2.03284.00515.34921.02462.70444.0865,1.06925.01134.0664.02556.13425.03884.202-.21513-.29487-.42351-.59811-.6134-.91446-.45679-.76107-.85817-1.56357-1.19027-2.38085l-.27449-.67574-.09201.65536c-.01744.12874-.02917.26024-.04186.39059.00653-.15172.00647-.30439.01872-.45335-.08104.58974-.11156,1.19841-.11195,1.81404.0033.6161.08143,1.22846.17866,1.86177.09804.63144.23734,1.27021.46765,1.89905.17208.4532.38992.89797.65681,1.31805-.3366-.29607-.60484-.607-.77427-.84639l-.36262-.51284.00536.13675c-.02176.29835.02064.62458.056.93125.16992,1.48839.80209,2.76099,1.55357,3.40949.00403.00468.00715.0092.01118.01388.02192.38851.08106.77973.16249,1.17074.09949.48726.24339.97295.41467,1.45287.18217.47722.39535.94815.65502,1.39516.19314.3229.41215.63269.65759.91076.00169.03629.00429.0717.0079.10831.00299.02823.00601.05647.00991.08481l.04225.31172c.06003.39033.19057,1.08677.58743,1.91548.37029.78197.91056,1.49406,1.5532,2.04813.0013.01773.00343.03453.00473.05215.03939.41248.11099.83423.24854,1.24588.14985.46588.35976.91669.61387,1.33932.50101.82143,1.16159,1.53154,1.91018,2.06523.24867.41051.47556.89142.6818,1.35528.21217.48211.40913.9716.59159,1.46535.32812.87759.61553,1.7675.8837,2.66116.01552.07311.04407.15932.07287.23617.00978.03224.02056.06562.03029.09775l.01588.05262.03174.04123c.34575.43692.69768.86579,1.05165,1.27448-.90822.5548-1.70776,1.25415-2.47366,1.95952-.47985.44373-.94794.89704-1.43395,1.31727-.4825.40625-1.00433.83724-1.55658.95278l-.4382.09146c-.00491-.00421-.00985-.00744-.01471-.0117.0039.00421.00777.00842.01061.01253l-.01219.00255.04716.03619c.23045.26653.50766.49947.84109.66378.07053.03198.14637.05813.22228.08226-.13077.06271-.77323.33709-.91186.38571-.04989.01747.90502.39439,2.15347.61953,1.0954.19753,2.12417.20434,3.02139.1889,7.40866-.12874,11.03978-1.69809,14.36818-5.16935.10212-.10628.19631-.21896.29648-.32633.4761-.4793.93476-.97534,1.37654-1.48126,2.91347-2.10407,2.56291-2.20713,5.13425-3.6338,1.65366-.15547,2.97449-.72997,4.26997-1.75331,2.3066-.84535,3.18393-1.34675,3.18739-1.67719.00091-.07779-.0143-.15526-.03099-.22161Z"/>
    <path class="cls-2" d="M280.29712,80.75271l-1.16419.14938c-2.11133.25587-2.91617.13171-3.41874.03577-.28504-.08439-.62627-.14419-1.14438-.09167-2.49116.25223-3.70587,1.90446-4.10951,2.35542-1.38328.80958-2.83178,1.50804-4.35158,2.12612-2.52236,1.02359-3.5733,1.19695-5.13594,1.36427l-.19122.13893c.31224-1.08682,1.20517-3.44755,3.69859-6.50773.36249-.44155.49953-.61428,1.11854-1.68374.61904-1.06946,1.21858-2.0213,1.43782-3.18559.27862-1.47955.51689-2.5386.65648-3.39982.13893-.85773.21924-1.70204.28174-2.53559.06635-.77942.09515-1.55484.22018-2.32906.03206-.1941.06913-.38716.11504-.58069l.12071-.51273-.39998.40313c-.22449.21984-.7378.73127-1.28649,1.60002-.21768.36122-.4155.73346-.55579,1.11209-.02738.07581-.05111.1511-.07412.22701-.00029-.00785-.02137-.34427.05122-.79206.01505-.09427.03351-.18817.05634-.28182l.13041-.55043-.31751.34187c-.23328.24334-.78636.83152-1.26795,1.78648-.29141.60939-.38883,1.03535-.41865,1.21764-.02972.18672-.04141.37063-.03294.54533-.20388-.31562-.2527-.73788-.19644-1.12676l.06785-.46479-.36951.39491c-.38082.40812-.75958.81951-1.10094,1.26054-.34432.43796-.66963.89163-.94843,1.3637-.28028.47072-.52227.95673-.71554,1.44513-.18791.46895-.3242.94326-.46783,1.39136-.56359.60659-1.1071,1.22789-1.63457,1.86167-.54045.65177-1.06524,1.31342-1.5552,2.0044-.48042.68676-.94721,1.37597-1.39087,2.08192-.2155.3464-1.29902,1.35793-2.26214,2.29485l1.73597,2.21846c.24467.2656.42119.42762.71034.60045.28915.17273.98886.34765,1.10804.36948.23403.04295.29799.11923.07737.13228-.1087.00634-1.0172-.06073-1.26104-.16166-.24381-.10092-1.32148-.62556-1.70766-.97404-.38558-.34785-.66238-.48055-1.79298-2.30093-.21966-.32258-.43718-.64028-.64805-.94446-.17382-.19582-.34827-.39132-.51954-.58844-1.65868-1.91964-3.26871-3.87667-4.85123-5.84452l-.0202-.02584-.02852-.02163-.0046-.00328c-1.48698-1.08817-2.89634-2.2519-4.14315-3.55622-1.25183-1.29787-2.38597-2.68976-3.50113-4.091l-.01648-.01971-.02303-.02028c-.22777-.19249-1.9889-1.61822-3.71881-3.96215-.53587-.71812-1.04039-1.45449-1.50794-2.20666-.46521-.75114-.90455-1.52083-1.28321-2.29303l-.34216-.69716-.03148.24984c.00268-.02522.0033-.04955.00598-.07477-.1407.62395-.23013,1.26725-.23474,1.92848-.00234.33018.01199.66534.07568,1.0081.01167.0624.02667.12604.04063.18963-.24477-.2709-.48146-.55001-.69615-.84218-.51648-.70299-.96713-1.44716-1.33633-2.20786l-.30511-.629-.12339.62328c-.0235.1224-.04037.24719-.05831.37094.01123-.14372.01484-.28811.03273-.42949-.10893.56078-.15924,1.13757-.17439,1.71993-.01087.58256.06596,1.15878.16462,1.75424.09965.59359.24745,1.19258.502,1.77884.19059.42226.43492.8349.7373,1.22227-.38693-.26752-.69347-.55168-.88607-.77188l-.4122-.4716.00299.12916c-.0326.28296.00923.58995.04331.87868.16332,1.40145.87283,2.58171,1.73696,3.16729.0046.00426.00814.00842.01277.01269.01635.36668.07623.7345.1622,1.10138.10482.45715.26162.91118.45065,1.35876.20182.44467.44009.88217.73335,1.29533.21836.2983.46729.58319.74796.83714.00112.03427.0033.06765.00668.10212.00281.02657.00567.05319.00954.07987l.04201.29326c.06094.36694.19707,1.02079.64181,1.78997.41472.72592,1.03009,1.37946,1.76909,1.87971.00109.01674.0032.03255.00429.04919.03624.38862.10997.78488.26115,1.16913.16423.4351.39917.85372.6865,1.24406.56681.75841,1.32304,1.40561,2.18657,1.88273.28125.37905.53533.82554.76564,1.25664.23682.4481.45567.9038.65744,1.36407.36311.8179.67824,1.64895.97079,2.48427.0164.06853.04776.14902.07963.22067.01069.03016.02249.06136.03312.09141l.01734.04908.03616.03785c1.58861,1.61349,3.29692,3.10344,4.83343,3.70056.25676.00104.50436.00187.73837.0025-.25439.02818-.52352.05782-.80259.08845.0097.00234.01952.00546.02925.00775-1.14792.63248-2.11016,1.43806-3.03332,2.2389-.52909.46084-1.04374.92953-1.5818,1.36885-.53499.4259-1.1142.87863-1.75235,1.03795l-.50634.1263c-.00606-.00359-.01212-.00614-.01812-.00967.00491.00359.00975.00718.01336.01082l-.01409.00354.05787.02959c.28957.22904.63139.42216,1.03394.5457.08496.0235.17569.04108.26635.05678-.14847.07092-.29451.14372-.43918.22306-.64889.35035-1.22004.79414-1.70812,1.27775l-.54562.53977.69272-.20008c-.03159.01586-.06323.02974-.09351.04742.04916-.02335.09957-.04196.14873-.06338l.06351-.0183c1.24193-.35981,2.52875-.60747,3.83027-.80532,1.03958-.11096,2.08185-.17538,3.13131-.27256,8.66585-.80344,12.80188-2.61135,16.4429-6.17713.11174-.10919.21373-.22364.32308-.33371.52212-.49381,1.0225-1.00181,1.50248-1.51745,3.25615-2.24394,4.99043-3.48103,7.89602-5.05735,1.92492-.29835,3.42912-.95943,4.8705-2.03955,2.63854-1.00618,3.62883-1.55775,3.60845-1.86838-.00465-.07311-.02821-.14439-.05265-.20518Z"/>
    <g>
      <rect class="cls-1" x="147.53531" y="219.60796" width="31.90321" height="6.22306" transform="translate(326.97383 445.43897) rotate(180)"/>
      <rect class="cls-4" x="211.34173" y="219.60796" width="31.90321" height="6.22306" transform="translate(454.58666 445.43897) rotate(180)"/>
      <rect class="cls-5" x="179.43852" y="219.60796" width="31.90321" height="6.22306" transform="translate(390.78025 445.43897) rotate(180)"/>
    </g>
    <g>
      <path class="cls-3" d="M85.11475,184.5874h-7.18109v.53296c1.15057,0,2.00568.97589,2.00568,2.47235,0,1.06976.00165,2.89752.00165,7.08325,0,1.90704.5307,3.16455,2.17151,3.54987l-.02179.27789c-1.77887,0-2.98773,2.18585-8.1795,2.18585-6.26404,0-11.12848-5.05774-11.12848-13.94281v-.00342c0-10.01477,5.81696-13.93591,10.83044-13.93591,4.21643,0,7.70081,2.4823,9.36896,7.23376h.47882l1.17706-5.91956c-2.71136-1.84229-6.56787-2.87689-10.4458-2.87689-11.32855,0-16.87299,7.6488-16.87299,15.34863,0,7.80322,5.6925,15.65887,16.828,15.65887,5.48877,0,9.96698-3.21454,11.8316-3.85242-.54169-.56763-.86292-1.59302-.86292-2.61572l-.00116-11.19672Z"/>
      <path class="cls-3" d="M160.4892,171.98797c1.03967.17328,1.61005.78265,1.50281,1.76581-.19556,1.79297-3.95294,8.35571-6.3894,12.60583l-7.06683-11.93335c-.46301-.80731-.84186-2.00702.89484-2.43829v-.44684l-9.17108-.00171v.44684c.98328.16388,1.73065.84344,2.5733,2.11664l8.49097,14.24298v10.62268c-.00775,1.34442-.43097,2.36127-1.48401,2.5368v.44684h1.48401v.00128h5.16608v-.00128h1.48517v-.44684c-1.06079-.17676-1.48352-1.2066-1.48517-2.56567v-11.15619l6.7168-12.21539c1.69897-2.8504,2.45227-3.33759,3.90778-3.58014v-.44684h-6.62524v.44684Z"/>
      <path class="cls-3" d="M112.47888,199.07916c-.05695-.06372-5.60083-10.19702-5.89612-10.64832-.96674-1.47717-2.23999-2.03735-3.83319-2.21124v-.30176c6.10413-.60443,8.51984-4.05743,8.51984-6.91748,0-3.81445-3.43237-7.46283-10.46259-7.46283l-10.41699.00116v.44678c1.02429.17078,1.63928,1.11041,1.63928,2.40747v24.58032c0,1.30151-.58575,2.35651-1.63928,2.5321v.44684h1.63928v.00128h5.16608v-.00128h1.64044v-.44684c-1.06085-.17682-1.63702-1.20563-1.64044-2.56458v-12.10132h3.08978l6.57745,12.26868-.00073.00128c.61469,1.11389.32001,2.24182-.6048,2.39594v.44684h9.07971v-.44684c-1.17023-.24414-2.13251-1.26208-2.85773-2.42621ZM99.70056,185.2611c-.0705,0-1.65204-.00256-2.50537-.00311v-12.13898c.85492-.00061,2.43976-.00323,2.51233-.00323,4.39911,0,6.17139,3.02167,6.17139,6.0506,0,3.04364-1.79224,6.09473-6.17834,6.09473Z"/>
      <path class="cls-3" d="M208.34167,184.5874h-7.18109v.53296c1.15057,0,2.00568.97589,2.00568,2.47235,0,1.06976.00171,2.89752.00171,7.08325,0,1.90704.5307,3.16455,2.17151,3.54987l-.02185.27789c-1.77881,0-2.98773,2.18585-8.1795,2.18585-6.26404,0-11.12848-5.05774-11.12848-13.94281v-.00342c0-10.01477,5.81702-13.93591,10.83051-13.93591,4.21643,0,7.70074,2.4823,9.36896,7.23376h.47882l1.177-5.91956c-2.71136-1.84229-6.56781-2.87689-10.4458-2.87689-11.32855,0-16.87299,7.6488-16.87299,15.34863,0,7.80322,5.6925,15.65887,16.828,15.65887,5.48877,0,9.96704-3.21454,11.83167-3.85242-.54169-.56763-.86298-1.59302-.86298-2.61572l-.00116-11.19672Z"/>
      <path class="cls-3" d="M128.92828,200.37109h-4.58624v-15.33765h3.65436c2.49756,0,3.75134,1.62469,3.61792,3.55792l.45996.05615,1.75067-7.89691-.47601-.0343c-1.01703,1.93262-2.19098,2.73462-5.32159,2.73462h-3.6853v-10.32654h4.89685c3.54523,0,5.68854,2.38196,6.21808,4.93854l.45215.00061,1.30176-6.52167h-6.44183l-13.23236-.00317v.44684c1.03369.17224,1.60828,1.15662,1.63928,2.46423v24.50977c-.00793,1.349-.5838,2.36993-1.63928,2.54584v.44684h1.63928v.00128h4.46545v.00012h13.93182c.17493-1.91156.76471-6.06207,1.12805-8.1582h-.50415c-1.88086,3.99725-5.25732,6.57568-9.26886,6.57568Z"/>
      <path class="cls-3" d="M264.1004,171.24481c-9.67017.00171-15.62738,7.80347-15.62738,15.50244v.00909c0,7.69897,5.95721,15.50073,15.62738,15.50244,9.6701-.00171,15.62732-7.80347,15.62732-15.50244v-.00909c0-7.69897-5.95721-15.50073-15.62732-15.50244ZM274.41956,186.76025c0,10.01477-5.43732,13.93591-10.31281,13.93591h-.01276c-4.87543,0-10.31281-3.92114-10.31281-13.93591v-.01691c0-10.01477,5.43738-13.93591,10.31281-13.93591h.01276c4.87549,0,10.31281,3.92114,10.31281,13.93591v.01691Z"/>
      <path class="cls-3" d="M320.66351,200.37109h-4.58618v-15.33765h3.65436c2.49756,0,3.75134,1.62469,3.61792,3.55792l.45996.05615,1.75067-7.89691-.47601-.0343c-1.01703,1.93262-2.19104,2.73462-5.32159,2.73462h-3.6853v-10.32654h4.89679c3.54529,0,5.68854,2.38196,6.21808,4.93854l.45221.00061,1.3017-6.52167h-6.44177l-13.23236-.00317v.44684c1.03369.17224,1.60828,1.15662,1.63928,2.46423v24.50977c-.008,1.349-.58386,2.36993-1.63928,2.54584v.44684h1.63928v.00128h4.46545v.00012h13.93182c.17493-1.91156.76471-6.06207,1.12805-8.1582h-.50421c-1.8808,3.99725-5.25726,6.57568-9.26886,6.57568Z"/>
      <path class="cls-3" d="M288.34644,177.82513c0-3.14551,2.48389-5.02887,5.69153-5.02887,3.10828,0,5.86316,2.00427,7.34906,7.08966h.42706l1.28058-5.76428c-2.94147-1.99866-5.71741-2.92017-9.02966-2.92017-5.3244,0-9.66309,3.28308-9.66309,8.26263,0,12.0155,17.1344,4.63171,17.1344,14.85217l-.00018.00092c0,3.91913-3.10883,6.39697-6.58459,6.39697-4.3609,0-7.85101-2.93207-9.22235-9.51141h-.50049l-1.65027,7.32123c3.73602,2.53857,7.09583,3.72058,11.30273,3.72058,5.63135,0,10.45917-3.18042,10.45917-10.17542l-.00006-.00793c0-12.06805-16.99384-6.17657-16.99384-14.23608Z"/>
      <path class="cls-3" d="M228.90454,171.24481c-9.67017.00171-15.62738,7.80347-15.62738,15.5025v.00909c0,7.69904,5.95721,15.50079,15.62738,15.5025,9.67017-.00171,15.62744-7.80347,15.62744-15.5025v-.00909c0-7.69904-5.95728-15.50079-15.62744-15.5025ZM239.22375,186.76031c0,10.01477-5.43732,13.93597-10.31281,13.93597h-.01282c-4.87543,0-10.31281-3.9212-10.31281-13.93597v-.01691c0-10.01477,5.43738-13.93597,10.31281-13.93597h.01282c4.87549,0,10.31281,3.9212,10.31281,13.93597v.01691Z"/>
      <path class="cls-3" d="M337.10388,169.8836c-2.02917,0-3.67993,1.651-3.67993,3.68018s1.65076,3.67999,3.67993,3.67999,3.67987-1.65076,3.67987-3.67999-1.65076-3.68018-3.67987-3.68018ZM337.10388,176.79174c-1.77997,0-3.22815-1.44794-3.22815-3.22797s1.44818-3.22815,3.22815-3.22815,3.22809,1.44818,3.22809,3.22815-1.44818,3.22797-3.22809,3.22797Z"/>
      <path class="cls-3" d="M337.86713,173.48431c.60278-.10126.75366-.60822.75366-1.11432,0-.86121-.60272-1.16486-1.35645-1.16486h-1.65833v4.66046h.90466v-1.97552h.15094c.22589,0,.52686,0,.75281.0506.30182.10211.30182.45636.30182.76001s0,.91187.07501,1.16492h.98047v-.0506c-.22681-.15186-.22681-1.31763-.22681-1.46948,0-.45544-.15002-.75909-.6778-.86121ZM337.18848,173.33245h-.6778v-1.26697h.60278c.37683,0,.60278.1012.60278.60815,0,.45642-.22595.65881-.52777.65881Z"/>
    </g>
  </g>
  <path class="cls-3" d="M127.49426,271.88716c-.31982-.22949-.62061-.63672-.89355-1.21191-.30225-.63672-.68555-1.58008-1.13818-2.80176l-8.27148-22.83691c-.26221-.7334-.56836-1.23242-.93701-1.52637-.76074-.59863-2.06152-.59961-2.79834.00684-.3501.29297-.646.79102-.90332,1.5166l-4.93604,13.42969c-.53125-.08008-1.02637-.12012-1.47607-.12012-1.62598,0-2.94482.57031-3.92139,1.69629-.95117,1.10059-1.55469,2.82031-1.79346,5.1123l-.04102.3916,1.70508.22754.09033-.34668c.31934-1.22852.89795-2.11621,1.71973-2.64062.6958-.44531,1.51025-.71973,2.42822-.81641l-1.92041,5.22656c-.51221,1.45508-.9458,2.55469-1.28857,3.26758-.31543.6582-.65186,1.11426-.99902,1.35742-.36621.25586-.87646.46484-1.51709.62109l-.30957.07617v1.66309h7.73242v-1.75586l-.36719-.03516c-1.08008-.10254-1.47461-.28027-1.61133-.375-.12158-.08594-.28369-.24902-.28369-.67188,0-.44824.08936-.98535.2666-1.5957.18457-.64453.46729-1.48242.84082-2.49316l1.88965-5.19531c1.375.2168,2.94873.65234,4.68359,1.29785,1.55078.58008,2.95898,1.34375,4.18604,2.27051,1.2207.9209,2.20947,1.91699,2.9375,2.95996.70264,1.00781,1.05908,1.97754,1.05908,2.88379,0,.38379-.14697.52734-.26025.60449-.23926.16602-.58008.28711-1.01123.36035l-.33789.05762v1.6875h9.08398v-1.66309l-.30956-.07617c-.52686-.12793-.96387-.31445-1.29736-.55273ZM119.34631,264.41353c-.48047-.42285-1.02246-.85645-1.62354-1.29688-1.21777-.8916-2.56934-1.72168-4.01562-2.46582-1.30273-.67188-2.58447-1.21191-3.81738-1.60938l3.78125-10.40332,5.67529,15.77539ZM159.07629,266.28267h1.82129l-1.01904,7.89648h-20.13916v-1.6543l.30029-.08105c.56982-.1543.98584-.35645,1.23633-.60254.15967-.15625.37061-.55371.47021-1.56543.08447-.89453.12744-2.31836.12744-4.22852v-14.42871c0-1.90918-.04297-3.33301-.12744-4.23047-.1001-1.01172-.31396-1.42285-.47607-1.58887-.24561-.25391-.65332-.44531-1.21436-.57227l-.31641-.07129v-1.66895h9.04199v1.67285l-.3208.06836c-.58789.12695-1.02686.32812-1.3042.59766-.18018.17773-.4165.59766-.51123,1.58496-.08496.88574-.12793,2.30176-.12793,4.20801v20.29883h5.69043c1.21533,0,2.229-.17578,3.01318-.52051.77197-.33789,1.45703-.90527,2.0376-1.68652.59863-.80371,1.17529-1.87305,1.71436-3.17773l.10352-.25ZM195.71057,243.48677l1.06689,7.98242h-1.82031l-.10498-.24609c-.5625-1.32324-1.14795-2.41016-1.74072-3.23047-.56543-.77734-1.24463-1.35059-2.01709-1.70215-.78369-.3584-1.79639-.54102-3.01074-.54102h-2.33789v20.29785c0,1.39258.0293,2.5332.08691,3.38867.05469.80566.16895,1.41406.33838,1.80859.1499.35352.37842.60059.69922.75781.36523.17969.88379.3252,1.54053.43262l.34033.05566v1.68848h-10.65186v-1.68848l.34033-.05566c.65186-.10645,1.1709-.25293,1.54346-.43359.31641-.15625.54492-.40332.6958-.75684.16992-.39355.28369-1.00195.33887-1.80859.05615-.83691.08496-1.97656.08496-3.38867v-20.29785h-2.33594c-1.18701,0-2.19336.18262-2.99121.54199-.78564.35059-1.47021.92383-2.03613,1.70215-.59033.81348-1.17578,1.89941-1.73975,3.22852l-.10498.24707h-1.82031l1.06543-7.98242h24.5708ZM207.48987,243.48677h8.90918v1.66895l-.31641.07129c-.55762.12598-.96484.31836-1.21191.57227-.16504.16797-.37988.5791-.47461,1.58887-.08496.90137-.12891,2.32422-.12891,4.23047v14.42871c0,1.90723.04395,3.33008.12891,4.23047.09961,1.06055.33594,1.43457.4668,1.56348.25391.24707.66992.4502,1.23633.60254l.2998.08105v1.6543h-8.90918v-1.6543l.2998-.08105c.56934-.15332.98535-.35645,1.23633-.60254.13086-.12793.36523-.50098.46777-1.56445.08691-.89258.13086-2.31641.13086-4.22949v-14.42871c0-1.91211-.04395-3.33594-.13086-4.22949-.09766-1.0127-.31152-1.42383-.47363-1.58887-.24512-.25488-.65332-.44629-1.21387-.57324l-.31641-.07129v-1.66895ZM248.54846,243.48775h7.82129v1.6709l-.31836.06934c-.47949.10449-.86621.24023-1.14746.40332-.23145.13379-.40039.36816-.51562.71484-.13184.40625-.22754,1.02734-.28516,1.84375-.05664.8291-.08594,1.9834-.08594,3.42969v11.14062c0,3.78516-.91992,6.75488-2.7334,8.82617-1.83008,2.08887-4.69434,3.14844-8.51367,3.14844-3.83594,0-6.77344-.97266-8.73047-2.89062-1.95898-1.9209-2.95117-4.9043-2.95117-8.87012v-11.35449c0-1.91992-.04395-3.34375-.12988-4.22949-.09473-1.01074-.31055-1.42383-.47461-1.5918-.24609-.25391-.65332-.44629-1.21289-.57031l-.31641-.07129v-1.66895h9.03906v1.67188l-.32031.06836c-.58594.12598-1.02148.33203-1.29492.6123-.18359.1875-.4209.62109-.51855,1.63379-.08691.89551-.13086,2.29102-.13086,4.14551v11.14062c0,3.07422.63477,5.37793,1.88574,6.84668,1.2334,1.44824,3.17285,2.18262,5.76562,2.18262,2.88379,0,5.00977-.7373,6.31641-2.19141,1.31738-1.4668,1.98633-3.75293,1.98633-6.79395v-11.18457c0-1.84766-.08594-3.22168-.25391-4.08496-.15332-.79199-.41699-1.33398-.78223-1.61035-.40234-.30371-.99902-.53809-1.77441-.69531l-.32422-.06543v-1.67578ZM288.06702,265.32271c0,2.78418-.99023,5.07617-2.94531,6.8125-1.9375,1.72461-4.79004,2.59961-8.47559,2.59961-1.26465,0-2.69629-.14551-4.25488-.43262-1.56445-.29004-3.06348-.77441-4.45508-1.44238l-.26465-.12793.91113-6.91895h1.7627l.07715.30664c.5537,2.2041,1.51562,3.85449,2.85938,4.90234,1.34082,1.04688,2.89746,1.57812,4.62598,1.57812,1.79395,0,3.19824-.50488,4.17383-1.5.97754-.99902,1.47363-2.39648,1.47363-4.15527,0-1.03906-.19043-1.93945-.56543-2.67773-.375-.73145-1.05664-1.44238-2.02441-2.1123-1.00488-.69336-2.4541-1.45605-4.30762-2.2666-2.1377-.94727-3.82715-1.88086-5.02441-2.77734-1.2207-.91895-2.08887-1.89453-2.58008-2.90137-.48926-1.00391-.7373-2.13379-.7373-3.3584,0-1.46777.38672-2.81934,1.15137-4.0166.7627-1.19629,1.88867-2.15918,3.34473-2.85938,2.36914-1.13672,5.5918-1.3457,9.46191-.60938,1.52246.29199,3.02832.79102,4.47559,1.48438l.26367.12695-.86621,6.87793h-1.75781l-.08008-.30078c-.61426-2.2998-1.50488-3.98633-2.64648-5.01074-1.13672-1.02148-2.43653-1.51855-3.97266-1.51855-1.58105,0-2.76562.44629-3.62109,1.36426-.85254.91309-1.28516,2.04102-1.28516,3.35254,0,.92383.18848,1.7334.55957,2.40723.36914.67578,1.05664,1.33691,2.04199,1.9668,1.02344.65527,2.51074,1.39941,4.42188,2.21094,2.10645.91699,3.77539,1.83008,4.96191,2.71582,1.20898.9043,2.07031,1.87305,2.56055,2.87988.49023,1.00781.7373,2.15137.7373,3.40039Z"/>
</svg>